<svg width="174" height="40" viewBox="0 0 174 40" fill="none" xmlns="http://www.w3.org/2000/svg">
<path fill-rule="evenodd" clip-rule="evenodd" d="M27.5085 16.8221L40.1827 39.0316H5.05125L9.261 31.9239L28.188 31.9285L23.391 23.9573L27.5085 16.8221ZM14.571 21.9897L27.4567 0.183298L45 30.2518H36.576L27.306 13.8512L22.8038 21.992L14.571 21.9897ZM25.5623 30.2793L0 30.1556L17.5658 0.0916748L21.7507 7.29786L12.069 23.1441H21.4447L25.5623 30.2793Z" fill="#0565FF"/>
<path d="M65.66 29.729C65.66 30.849 65.51 31.819 65.21 32.639C64.91 33.459 64.49 34.179 63.95 34.799C63.41 35.419 62.78 35.959 62.06 36.419C61.34 36.879 60.56 37.309 59.72 37.709L57.71 34.379C58.47 33.979 59.05 33.579 59.45 33.179C59.87 32.799 60.17 32.409 60.35 32.009C60.55 31.629 60.66 31.259 60.68 30.899C60.72 30.519 60.74 30.149 60.74 29.789V10.709H65.66V29.729ZM77.1303 15.959H81.8703V23.789C81.8703 24.989 81.9503 25.989 82.1103 26.789C82.2703 27.589 82.4603 28.229 82.6803 28.709C82.9203 29.289 83.2003 29.739 83.5203 30.059L79.7103 31.259C79.5303 31.079 79.3503 30.849 79.1703 30.569C79.0103 30.349 78.8503 30.069 78.6903 29.729C78.5303 29.369 78.4003 28.959 78.3003 28.499C77.7803 29.439 77.0603 30.129 76.1403 30.569C75.2403 30.989 74.2603 31.199 73.2003 31.199C72.4203 31.199 71.7503 31.079 71.1903 30.839C70.6503 30.579 70.2003 30.229 69.8403 29.789C69.5003 29.329 69.2503 28.779 69.0903 28.139C68.9503 27.499 68.8803 26.779 68.8803 25.979V15.959H73.6503V25.349C73.6503 26.049 73.7303 26.619 73.8903 27.059C74.0703 27.479 74.3903 27.689 74.8503 27.689C75.4103 27.689 75.9303 27.319 76.4103 26.579C76.8903 25.819 77.1303 24.779 77.1303 23.459V15.959ZM94.3995 31.019V21.659C94.3995 20.959 94.3095 20.399 94.1295 19.979C93.9695 19.539 93.6595 19.319 93.1995 19.319C92.6395 19.319 92.1195 19.689 91.6395 20.429C91.1595 21.149 90.9195 22.169 90.9195 23.489V31.019H86.1795V23.219C86.1795 22.019 86.0895 21.029 85.9095 20.249C85.7495 19.449 85.5595 18.799 85.3395 18.299C85.0995 17.739 84.8295 17.289 84.5295 16.949L88.3395 15.749C88.5195 15.949 88.6995 16.179 88.8795 16.439C89.0395 16.659 89.1895 16.949 89.3295 17.309C89.4895 17.649 89.6195 18.039 89.7195 18.479C90.2395 17.539 90.9495 16.849 91.8495 16.409C92.7695 15.969 93.7695 15.749 94.8495 15.749C96.4095 15.749 97.5195 16.229 98.1795 17.189C98.8395 18.129 99.1695 19.389 99.1695 20.969V31.019H94.3995ZM106.089 31.139C104.949 31.139 104.029 30.849 103.329 30.269C102.629 29.669 102.279 28.829 102.279 27.749V15.959H107.019V26.399C107.019 26.859 107.089 27.169 107.229 27.329C107.369 27.489 107.579 27.569 107.859 27.569C108.019 27.569 108.179 27.559 108.339 27.539C108.499 27.499 108.599 27.469 108.639 27.449L109.059 30.419C109.039 30.439 108.949 30.489 108.789 30.569C108.629 30.629 108.419 30.709 108.159 30.809C107.899 30.889 107.589 30.959 107.229 31.019C106.869 31.099 106.489 31.139 106.089 31.139ZM104.709 8.72904C105.549 8.72904 106.189 8.97904 106.629 9.47904C107.069 9.97904 107.289 10.609 107.289 11.369C107.289 12.149 107.059 12.799 106.599 13.319C106.159 13.839 105.489 14.099 104.589 14.099C103.749 14.099 103.099 13.849 102.639 13.349C102.199 12.829 101.979 12.219 101.979 11.519C101.979 10.719 102.209 10.059 102.669 9.53904C103.129 8.99904 103.809 8.72904 104.709 8.72904ZM123.583 23.789C123.583 24.989 123.663 25.989 123.823 26.789C123.983 27.589 124.173 28.229 124.393 28.709C124.633 29.289 124.913 29.739 125.233 30.059L121.423 31.259C121.203 31.059 121.003 30.809 120.823 30.509C120.663 30.249 120.503 29.939 120.343 29.579C120.203 29.199 120.083 28.759 119.983 28.259C119.643 29.199 119.143 29.929 118.483 30.449C117.823 30.949 116.953 31.199 115.873 31.199C114.893 31.199 114.033 31.019 113.293 30.659C112.573 30.299 111.973 29.799 111.493 29.159C111.013 28.499 110.653 27.709 110.413 26.789C110.193 25.869 110.083 24.849 110.083 23.729C110.083 22.589 110.263 21.529 110.623 20.549C111.003 19.569 111.523 18.729 112.183 18.029C112.843 17.309 113.633 16.749 114.553 16.349C115.473 15.949 116.493 15.749 117.613 15.749C118.233 15.749 118.893 15.799 119.593 15.899C120.293 15.979 120.933 16.079 121.513 16.199C122.093 16.299 122.573 16.399 122.953 16.499C123.353 16.579 123.563 16.619 123.583 16.619V23.789ZM116.653 27.719C116.953 27.719 117.233 27.589 117.493 27.329C117.773 27.069 118.013 26.719 118.213 26.279C118.413 25.839 118.563 25.339 118.663 24.779C118.783 24.199 118.843 23.589 118.843 22.949V19.469C118.703 19.409 118.503 19.359 118.243 19.319C118.003 19.259 117.793 19.229 117.613 19.229C117.133 19.229 116.733 19.339 116.413 19.559C116.093 19.759 115.833 20.049 115.633 20.429C115.453 20.789 115.323 21.229 115.243 21.749C115.163 22.269 115.123 22.829 115.123 23.429C115.123 23.989 115.133 24.529 115.153 25.049C115.173 25.549 115.233 25.999 115.333 26.399C115.453 26.799 115.613 27.119 115.813 27.359C116.013 27.599 116.293 27.719 116.653 27.719ZM135.386 31.019V21.659C135.386 20.959 135.296 20.399 135.116 19.979C134.956 19.539 134.646 19.319 134.186 19.319C133.626 19.319 133.106 19.689 132.626 20.429C132.146 21.149 131.906 22.169 131.906 23.489V31.019H127.166V23.219C127.166 22.019 127.076 21.029 126.896 20.249C126.736 19.449 126.546 18.799 126.326 18.299C126.086 17.739 125.816 17.289 125.516 16.949L129.326 15.749C129.506 15.949 129.686 16.179 129.866 16.439C130.026 16.659 130.176 16.949 130.316 17.309C130.476 17.649 130.606 18.039 130.706 18.479C131.226 17.539 131.936 16.849 132.836 16.409C133.756 15.969 134.756 15.749 135.836 15.749C137.396 15.749 138.506 16.229 139.166 17.189C139.826 18.129 140.156 19.389 140.156 20.969V31.019H135.386ZM153.855 31.259L153.675 31.049C153.555 30.929 153.415 30.739 153.255 30.479C153.095 30.219 152.935 29.909 152.775 29.549C152.615 29.169 152.495 28.739 152.415 28.259C152.075 29.199 151.575 29.929 150.915 30.449C150.255 30.949 149.385 31.199 148.305 31.199C147.325 31.199 146.465 31.019 145.725 30.659C145.005 30.299 144.405 29.799 143.925 29.159C143.445 28.499 143.085 27.709 142.845 26.789C142.625 25.869 142.515 24.849 142.515 23.729C142.515 22.589 142.695 21.529 143.055 20.549C143.435 19.569 143.955 18.729 144.615 18.029C145.275 17.309 146.065 16.749 146.985 16.349C147.905 15.949 148.925 15.749 150.045 15.749C150.225 15.749 150.415 15.759 150.615 15.779C150.835 15.799 151.055 15.819 151.275 15.839V9.29904L156.015 10.079V23.789C156.015 24.969 156.095 25.959 156.255 26.759C156.435 27.559 156.625 28.209 156.825 28.709C157.025 29.189 157.215 29.529 157.395 29.729L157.665 30.059L153.855 31.259ZM149.085 27.719C149.385 27.719 149.665 27.589 149.925 27.329C150.205 27.069 150.445 26.719 150.645 26.279C150.845 25.839 150.995 25.339 151.095 24.779C151.215 24.199 151.275 23.589 151.275 22.949V19.469C151.135 19.409 150.935 19.359 150.675 19.319C150.435 19.259 150.225 19.229 150.045 19.229C149.565 19.229 149.165 19.339 148.845 19.559C148.525 19.759 148.265 20.049 148.065 20.429C147.885 20.789 147.755 21.229 147.675 21.749C147.595 22.269 147.555 22.829 147.555 23.429C147.555 23.989 147.565 24.529 147.585 25.049C147.605 25.549 147.665 25.999 147.765 26.399C147.885 26.799 148.045 27.119 148.245 27.359C148.445 27.599 148.725 27.719 149.085 27.719ZM165.943 15.659C168.323 15.659 170.053 16.339 171.133 17.699C172.233 19.059 172.783 20.939 172.783 23.339C172.783 24.479 172.633 25.539 172.333 26.519C172.053 27.479 171.613 28.319 171.013 29.039C170.433 29.739 169.693 30.299 168.793 30.719C167.913 31.119 166.883 31.319 165.703 31.319C164.503 31.319 163.463 31.149 162.583 30.809C161.723 30.449 161.013 29.939 160.453 29.279C159.913 28.619 159.503 27.819 159.223 26.879C158.963 25.919 158.833 24.849 158.833 23.669C158.833 22.529 158.973 21.469 159.253 20.489C159.553 19.509 159.993 18.669 160.573 17.969C161.173 17.249 161.913 16.689 162.793 16.289C163.693 15.869 164.743 15.659 165.943 15.659ZM165.673 19.229C165.313 19.229 165.013 19.339 164.773 19.559C164.533 19.759 164.343 20.049 164.203 20.429C164.083 20.789 163.993 21.219 163.933 21.719C163.893 22.219 163.873 22.759 163.873 23.339C163.873 23.939 163.903 24.509 163.963 25.049C164.023 25.589 164.123 26.059 164.263 26.459C164.423 26.859 164.643 27.179 164.923 27.419C165.203 27.639 165.553 27.749 165.973 27.749C166.333 27.749 166.633 27.639 166.873 27.419C167.113 27.199 167.293 26.909 167.413 26.549C167.553 26.169 167.643 25.729 167.683 25.229C167.743 24.729 167.773 24.199 167.773 23.639C167.773 23.019 167.743 22.449 167.683 21.929C167.623 21.389 167.513 20.919 167.353 20.519C167.213 20.119 167.003 19.809 166.723 19.589C166.443 19.349 166.093 19.229 165.673 19.229Z" fill="#0565FF"/>
</svg>
