<svg width="244" height="56" viewBox="0 0 244 56" fill="none" xmlns="http://www.w3.org/2000/svg">
<path fill-rule="evenodd" clip-rule="evenodd" d="M38.5751 23.5509L56.3482 54.6442H7.08336L12.9867 44.6935L39.528 44.6999L32.8012 33.5402L38.5751 23.5509ZM20.4329 30.7856L38.5025 0.256614L63.1034 42.3525H51.2905L38.2912 19.3917L31.9777 30.7888L20.4329 30.7856ZM35.846 42.391L0 42.2178L24.6325 0.128342L30.501 10.217L16.9243 32.4017H30.0719L35.846 42.391Z" fill="#F6F3F3"/>
<path d="M92.0749 41.6206C92.0749 43.1886 91.8646 44.5466 91.4439 45.6946C91.0232 46.8426 90.4342 47.8506 89.677 48.7186C88.9197 49.5866 88.0363 50.3426 87.0266 50.9866C86.017 51.6306 84.9232 52.2326 83.7453 52.7926L80.9266 48.1306C81.9924 47.5706 82.8057 47.0106 83.3666 46.4506C83.9556 45.9186 84.3763 45.3726 84.6287 44.8126C84.9092 44.2806 85.0634 43.7626 85.0915 43.2586C85.1476 42.7266 85.1756 42.2086 85.1756 41.7046V14.9926H92.0749V41.6206ZM108.16 22.3426H114.807V33.3046C114.807 34.9846 114.919 36.3846 115.143 37.5046C115.368 38.6246 115.634 39.5206 115.942 40.1926C116.279 41.0046 116.672 41.6346 117.12 42.0826L111.778 43.7626C111.525 43.5106 111.273 43.1886 111.02 42.7966C110.796 42.4886 110.572 42.0966 110.347 41.6206C110.123 41.1166 109.941 40.5426 109.8 39.8986C109.071 41.2146 108.062 42.1806 106.771 42.7966C105.509 43.3846 104.135 43.6786 102.649 43.6786C101.555 43.6786 100.615 43.5106 99.83 43.1746C99.0728 42.8106 98.4418 42.3206 97.9369 41.7046C97.4602 41.0606 97.1096 40.2906 96.8852 39.3946C96.6889 38.4986 96.5907 37.4906 96.5907 36.3706V22.3426H103.28V35.4886C103.28 36.4686 103.392 37.2666 103.616 37.8826C103.869 38.4706 104.317 38.7646 104.962 38.7646C105.748 38.7646 106.477 38.2466 107.15 37.2106C107.823 36.1466 108.16 34.6906 108.16 32.8426V22.3426ZM132.376 43.4266V30.3226C132.376 29.3426 132.25 28.5586 131.998 27.9706C131.773 27.3546 131.339 27.0466 130.694 27.0466C129.908 27.0466 129.179 27.5646 128.506 28.6006C127.833 29.6086 127.496 31.0366 127.496 32.8846V43.4266H120.849V32.5066C120.849 30.8266 120.723 29.4406 120.471 28.3486C120.246 27.2286 119.98 26.3186 119.671 25.6186C119.335 24.8346 118.956 24.2046 118.536 23.7286L123.878 22.0486C124.131 22.3286 124.383 22.6506 124.636 23.0146C124.86 23.3226 125.07 23.7286 125.267 24.2326C125.491 24.7086 125.673 25.2546 125.814 25.8706C126.543 24.5546 127.538 23.5886 128.8 22.9726C130.091 22.3566 131.493 22.0486 133.007 22.0486C135.195 22.0486 136.751 22.7206 137.677 24.0646C138.602 25.3806 139.065 27.1446 139.065 29.3566V43.4266H132.376ZM148.768 43.5946C147.17 43.5946 145.88 43.1886 144.898 42.3766C143.917 41.5366 143.426 40.3606 143.426 38.8486V22.3426H150.073V36.9586C150.073 37.6026 150.171 38.0366 150.367 38.2606C150.563 38.4846 150.858 38.5966 151.251 38.5966C151.475 38.5966 151.699 38.5826 151.924 38.5546C152.148 38.4986 152.288 38.4566 152.344 38.4286L152.933 42.5866C152.905 42.6146 152.779 42.6846 152.555 42.7966C152.33 42.8806 152.036 42.9926 151.671 43.1326C151.307 43.2446 150.872 43.3426 150.367 43.4266C149.862 43.5386 149.329 43.5946 148.768 43.5946ZM146.833 12.2207C148.011 12.2207 148.909 12.5707 149.526 13.2707C150.143 13.9707 150.451 14.8526 150.451 15.9166C150.451 17.0086 150.129 17.9186 149.484 18.6466C148.867 19.3746 147.927 19.7386 146.665 19.7386C145.487 19.7386 144.576 19.3886 143.931 18.6886C143.314 17.9606 143.005 17.1066 143.005 16.1266C143.005 15.0066 143.328 14.0826 143.973 13.3547C144.618 12.5987 145.571 12.2207 146.833 12.2207ZM173.3 33.3046C173.3 34.9846 173.412 36.3846 173.637 37.5046C173.861 38.6246 174.128 39.5206 174.436 40.1926C174.773 41.0046 175.165 41.6346 175.614 42.0826L170.271 43.7626C169.963 43.4826 169.682 43.1326 169.43 42.7126C169.206 42.3486 168.981 41.9146 168.757 41.4106C168.561 40.8786 168.392 40.2626 168.252 39.5626C167.775 40.8786 167.074 41.9006 166.149 42.6286C165.223 43.3286 164.003 43.6786 162.489 43.6786C161.114 43.6786 159.908 43.4266 158.871 42.9226C157.861 42.4186 157.02 41.7186 156.346 40.8226C155.673 39.8986 155.169 38.7926 154.832 37.5046C154.523 36.2166 154.369 34.7886 154.369 33.2206C154.369 31.6246 154.622 30.1406 155.126 28.7686C155.659 27.3966 156.389 26.2206 157.314 25.2406C158.24 24.2326 159.347 23.4486 160.638 22.8886C161.928 22.3286 163.358 22.0486 164.929 22.0486C165.798 22.0486 166.723 22.1186 167.705 22.2586C168.687 22.3706 169.584 22.5106 170.398 22.6786C171.211 22.8186 171.884 22.9586 172.417 23.0986C172.978 23.2106 173.272 23.2666 173.3 23.2666V33.3046ZM163.582 38.8066C164.003 38.8066 164.396 38.6246 164.76 38.2606C165.153 37.8966 165.489 37.4066 165.77 36.7906C166.05 36.1746 166.261 35.4746 166.401 34.6906C166.569 33.8786 166.653 33.0246 166.653 32.1286V27.2566C166.457 27.1726 166.177 27.1026 165.812 27.0466C165.475 26.9626 165.181 26.9206 164.929 26.9206C164.255 26.9206 163.695 27.0746 163.246 27.3826C162.797 27.6626 162.432 28.0686 162.152 28.6006C161.9 29.1046 161.717 29.7206 161.605 30.4486C161.493 31.1766 161.437 31.9606 161.437 32.8006C161.437 33.5846 161.451 34.3406 161.479 35.0686C161.507 35.7686 161.591 36.3986 161.731 36.9586C161.9 37.5186 162.124 37.9666 162.404 38.3026C162.685 38.6386 163.078 38.8066 163.582 38.8066ZM189.852 43.4266V30.3226C189.852 29.3426 189.725 28.5586 189.473 27.9706C189.249 27.3546 188.814 27.0466 188.169 27.0466C187.384 27.0466 186.654 27.5646 185.981 28.6006C185.308 29.6086 184.972 31.0366 184.972 32.8846V43.4266H178.325V32.5066C178.325 30.8266 178.199 29.4406 177.946 28.3486C177.722 27.2286 177.455 26.3186 177.147 25.6186C176.81 24.8346 176.432 24.2046 176.011 23.7286L181.354 22.0486C181.606 22.3286 181.858 22.6506 182.111 23.0146C182.335 23.3226 182.546 23.7286 182.742 24.2326C182.966 24.7086 183.149 25.2546 183.289 25.8706C184.018 24.5546 185.014 23.5886 186.276 22.9726C187.566 22.3566 188.968 22.0486 190.483 22.0486C192.67 22.0486 194.227 22.7206 195.152 24.0646C196.078 25.3806 196.541 27.1446 196.541 29.3566V43.4266H189.852ZM215.751 43.7626L215.498 43.4686C215.33 43.3006 215.134 43.0346 214.909 42.6706C214.685 42.3066 214.461 41.8726 214.236 41.3686C214.012 40.8366 213.844 40.2346 213.731 39.5626C213.255 40.8786 212.553 41.9006 211.628 42.6286C210.702 43.3286 209.482 43.6786 207.968 43.6786C206.594 43.6786 205.388 43.4266 204.35 42.9226C203.34 42.4186 202.499 41.7186 201.826 40.8226C201.153 39.8986 200.648 38.7926 200.311 37.5046C200.003 36.2166 199.849 34.7886 199.849 33.2206C199.849 31.6246 200.101 30.1406 200.606 28.7686C201.139 27.3966 201.868 26.2206 202.793 25.2406C203.719 24.2326 204.827 23.4486 206.117 22.8886C207.407 22.3286 208.837 22.0486 210.408 22.0486C210.66 22.0486 210.927 22.0626 211.207 22.0906C211.516 22.1186 211.824 22.1466 212.133 22.1746V13.0187L218.78 14.1106V33.3046C218.78 34.9566 218.892 36.3426 219.116 37.4626C219.369 38.5826 219.635 39.4926 219.915 40.1926C220.196 40.8646 220.462 41.3406 220.715 41.6206L221.093 42.0826L215.751 43.7626ZM209.062 38.8066C209.482 38.8066 209.875 38.6246 210.24 38.2606C210.632 37.8966 210.969 37.4066 211.249 36.7906C211.53 36.1746 211.74 35.4746 211.88 34.6906C212.049 33.8786 212.133 33.0246 212.133 32.1286V27.2566C211.936 27.1726 211.656 27.1026 211.291 27.0466C210.955 26.9626 210.66 26.9206 210.408 26.9206C209.735 26.9206 209.174 27.0746 208.725 27.3826C208.276 27.6626 207.912 28.0686 207.631 28.6006C207.379 29.1046 207.197 29.7206 207.084 30.4486C206.972 31.1766 206.916 31.9606 206.916 32.8006C206.916 33.5846 206.93 34.3406 206.958 35.0686C206.986 35.7686 207.07 36.3986 207.211 36.9586C207.379 37.5186 207.603 37.9666 207.884 38.3026C208.164 38.6386 208.557 38.8066 209.062 38.8066ZM232.702 21.9226C236.039 21.9226 238.465 22.8746 239.98 24.7786C241.522 26.6826 242.293 29.3146 242.293 32.6746C242.293 34.2706 242.083 35.7546 241.662 37.1266C241.27 38.4706 240.653 39.6466 239.811 40.6546C238.998 41.6346 237.96 42.4186 236.698 43.0066C235.464 43.5666 234.02 43.8466 232.365 43.8466C230.682 43.8466 229.224 43.6086 227.99 43.1326C226.784 42.6286 225.788 41.9146 225.003 40.9906C224.246 40.0666 223.671 38.9466 223.278 37.6306C222.914 36.2866 222.731 34.7886 222.731 33.1366C222.731 31.5406 222.928 30.0566 223.32 28.6846C223.741 27.3126 224.358 26.1366 225.171 25.1566C226.013 24.1486 227.05 23.3646 228.284 22.8046C229.546 22.2166 231.019 21.9226 232.702 21.9226ZM232.323 26.9206C231.818 26.9206 231.397 27.0746 231.061 27.3826C230.724 27.6626 230.458 28.0686 230.262 28.6006C230.093 29.1046 229.967 29.7066 229.883 30.4066C229.827 31.1066 229.799 31.8626 229.799 32.6746C229.799 33.5146 229.841 34.3126 229.925 35.0686C230.009 35.8246 230.149 36.4826 230.346 37.0426C230.57 37.6026 230.879 38.0506 231.271 38.3866C231.664 38.6946 232.155 38.8486 232.744 38.8486C233.249 38.8486 233.669 38.6946 234.006 38.3866C234.342 38.0786 234.595 37.6726 234.763 37.1686C234.959 36.6366 235.086 36.0206 235.142 35.3206C235.226 34.6206 235.268 33.8786 235.268 33.0946C235.268 32.2266 235.226 31.4286 235.142 30.7006C235.058 29.9446 234.903 29.2866 234.679 28.7266C234.483 28.1666 234.188 27.7326 233.795 27.4246C233.403 27.0886 232.912 26.9206 232.323 26.9206Z" fill="#F6F3F3"/>
</svg>
